HIERARCHY
ROOT Hips
{
    OFFSET 0.000000 0.000000 0.000000
    CHANNELS 6 Xposition Yposition Zposition Zrotation Xrotation Yrotation
    JOINT Spine
    {
        OFFSET -0.000000 7.246840 0.000000
        CHANNELS 3 Zrotation Xrotation Yrotation
        JOINT Spine1
        {
            OFFSET -0.000000 20.289354 0.000000
            CHANNELS 3 Zrotation Xrotation Yrotation
            JOINT Neck
            {
                OFFSET -0.000000 20.206032 1.836912
                CHANNELS 3 Zrotation Xrotation Yrotation
                JOINT Head
                {
                    OFFSET -0.000000 12.372654 -1.767522
                    CHANNELS 3 Zrotation Xrotation Yrotation
                    End Site
                    {
                        OFFSET -0.000000 22.094025 0.000000
                    }
                }
            }
            JOINT LeftShoulder
            {
                OFFSET 3.465871 17.201674 -0.568930
                CHANNELS 3 Zrotation Xrotation Yrotation
                JOINT LeftArm
                {
                    OFFSET 14.070313 0.000000 0.000000
                    CHANNELS 3 Zrotation Xrotation Yrotation
                    JOINT LeftForeArm
                    {
                        OFFSET 26.549477 0.000000 0.000000
                        CHANNELS 3 Zrotation Xrotation Yrotation
                        JOINT LeftHand
                        {
                            OFFSET 18.880413 0.000000 0.000000
                            CHANNELS 3 Zrotation Xrotation Yrotation
                            End Site
                            {
                                OFFSET 13.256415 0.000000 0.000000
                            }
                        }
                    }
                }
            }
            JOINT RightShoulder
            {
                OFFSET -3.526370 17.201674 -0.568930
                CHANNELS 3 Zrotation Xrotation Yrotation
                JOINT RightArm
                {
                    OFFSET -14.070313 0.000000 0.000000
                    CHANNELS 3 Zrotation Xrotation Yrotation
                    JOINT RightForeArm
                    {
                        OFFSET -26.549477 0.000000 0.000000
                        CHANNELS 3 Zrotation Xrotation Yrotation
                        JOINT RightHand
                        {
                            OFFSET -18.880413 0.000000 0.000000
                            CHANNELS 3 Zrotation Xrotation Yrotation
                            End Site
                            {
                                OFFSET -13.256415 0.000000 0.000000
                            }
                        }
                    }
                }
            }
        }
    }
    JOINT LeftUpLeg
    {
        OFFSET 8.837609 0.000000 0.000000
        CHANNELS 3 Zrotation Xrotation Yrotation
        JOINT LeftLeg
        {
            OFFSET -0.000000 -41.345005 0.000000
            CHANNELS 3 Zrotation Xrotation Yrotation
            JOINT LeftFoot
            {
                OFFSET -0.000000 -35.500874 0.000000
                CHANNELS 3 Zrotation Xrotation Yrotation
                JOINT LeftToeBase
                {
                    OFFSET -0.000000 -5.744446 13.256415
                    CHANNELS 3 Zrotation Xrotation Yrotation
                    End Site
                    {
                        OFFSET -0.000000 0.000000 3.535044
                    }
                }
            }
        }
    }
    JOINT RightUpLeg
    {
        OFFSET -8.837609 0.000000 0.000000
        CHANNELS 3 Zrotation Xrotation Yrotation
        JOINT RightLeg
        {
            OFFSET -0.000000 -41.345005 0.000000
            CHANNELS 3 Zrotation Xrotation Yrotation
            JOINT RightFoot
            {
                OFFSET -0.000000 -35.500874 0.000000
                CHANNELS 3 Zrotation Xrotation Yrotation
                JOINT RightToeBase
                {
                    OFFSET -0.000000 -5.744446 13.256415
                    CHANNELS 3 Zrotation Xrotation Yrotation
                    End Site
                    {
                        OFFSET -0.000000 0.000000 3.535044
                    }
                }
            }
        }
    }
}
MOTION
Frames:    13
Frame Time:    0.010000
0.653608    81.737785    -5.563091    -0.759550    -2.218158    0.706678    0.184068    -8.904922    -0.854717    -0.327706    1.913376    -0.863552    0.793305    37.716354    -0.602620    2.469100    -12.635046    0.161897    20.430611    1.792967    6.498598    -29.648886    1.306548    -16.478804    2.485021    -1.144765    3.853270    -6.730003    -0.838693    -6.620585    -16.656282    0.856230    12.722458    17.674845    2.762634    9.624549    0.303145    2.132174    -6.909910    5.192274    2.880109    16.002645    3.260150    14.006169    -0.959128    -2.708575    -10.935406    -2.593496    0.748346    -0.965615    -0.008382    -0.167854    0.197258    0.234707    -6.162114    12.171328    3.867834    8.174737    -12.890298    3.536502    -0.240615    2.074493    -7.222422    -0.472340    -1.370833    0.859846    
0.650334    81.737877    -5.554360    -0.758312    -2.218056    0.695617    0.177632    -8.901972    -0.852291    -0.327835    1.907478    -0.860690    0.804431    37.723373    -0.604332    2.462369    -12.665083    0.161632    20.439854    1.793203    6.507490    -29.655340    1.301109    -16.490091    2.461573    -1.206094    3.782516    -6.651155    -0.897117    -6.710219    -16.650154    0.866533    12.713348    17.658085    2.787300    9.641017    0.318367    2.123860    -6.918698    5.194157    2.872483    15.991069    3.253467    14.018116    -0.954750    -2.685035    -10.947175    -2.600255    0.743070    -0.954680    0.008264    -0.155701    0.179359    0.217737    -6.162188    12.174470    3.884127    8.175874    -12.893497    3.486047    -0.262325    2.075121    -7.170503    -0.475055    -1.356576    0.864651    
0.646660    81.737724    -5.547041    -0.762171    -2.211799    0.683563    0.174395    -8.907465    -0.850781    -0.318289    1.905368    -0.859089    0.787437    37.700218    -0.601373    2.480128    -12.643633    0.164611    20.432867    1.806944    6.514729    -29.658955    1.266622    -16.506706    2.448107    -1.223763    3.789370    -6.613286    -0.915423    -6.732506    -16.660809    0.862634    12.704923    17.667257    2.789140    9.669269    0.315389    2.130087    -6.961410    5.201092    2.880137    16.002632    3.262961    14.016010    -0.949039    -2.702297    -10.943645    -2.591040    0.746131    -0.968643    -0.007400    -0.160942    0.192590    0.225049    -6.154414    12.170808    3.870600    8.170665    -12.887649    3.536327    -0.240814    2.067390    -7.196425    -0.481388    -1.333366    0.875952    
0.645607    81.737633    -5.538130    -0.760970    -2.208995    0.673271    0.171403    -8.910195    -0.847607    -0.320879    1.901277    -0.855683    0.802514    37.708588    -0.595313    2.473728    -12.674533    0.173277    20.444126    1.766489    6.490568    -29.677057    1.244894    -16.462091    2.439814    -1.224238    3.792010    -6.565396    -0.917054    -6.758062    -16.646967    0.866822    12.708627    17.646317    2.784878    9.673637    0.313119    2.140548    -6.982913    5.257910    2.896829    15.965802    3.255714    14.022226    -0.959410    -2.660428    -10.944779    -2.681256    0.726228    -0.966334    0.114231    -0.170517    0.167600    0.238473    -6.159268    12.171922    3.868259    8.176808    -12.884323    3.544383    -0.242408    2.000842    -7.117424    -0.427539    -1.312952    0.777792    
0.643646    81.737007    -5.530513    -0.762864    -2.203189    0.661281    0.177817    -8.919476    -0.840648    -0.335871    1.907423    -0.848989    0.827539    37.692158    -0.601082    2.463320    -12.673770    0.169959    20.459637    1.773771    6.500408    -29.695742    1.213146    -16.492189    2.446041    -1.217497    3.797246    -6.549580    -0.912930    -6.732898    -16.631056    0.849119    12.703478    17.644344    2.788733    9.680524    0.289844    2.136239    -7.016037    5.325313    2.899687    15.946442    3.256579    14.022040    -0.923835    -2.683947    -10.937933    -2.632247    0.736527    -0.970766    0.046864    -0.163742    0.169141    0.228996    -6.159871    12.167645    3.883792    8.184171    -12.884404    3.534240    -0.255806    2.068207    -7.196227    -0.477415    -1.364858    0.869026    
0.641161    81.737045    -5.522373    -0.765033    -2.202384    0.649438    0.171669    -8.914576    -0.838095    -0.322769    1.897907    -0.846136    0.830694    37.667660    -0.600497    2.455565    -12.653773    0.168680    20.454819    1.735785    6.480731    -29.681690    1.250780    -16.441360    2.441197    -1.237510    3.774588    -6.529985    -0.933328    -6.736017    -16.639627    0.839417    12.715579    17.637482    2.813849    9.663694    0.275872    2.104697    -7.020501    5.396218    2.876335    15.927177    3.262289    14.023573    -0.931905    -2.699599    -10.922575    -2.594469    0.757092    -0.989268    0.053441    -0.150903    0.170324    0.211039    -6.155460    12.170685    3.890159    8.180407    -12.882579    3.534034    -0.255320    2.062053    -7.186925    -0.475941    -1.349031    0.866192    
0.638477    81.737328    -5.514060    -0.771329    -2.203074    0.640265    0.178062    -8.912958    -0.836564    -0.327294    1.896430    -0.845123    0.833326    37.653999    -0.597477    2.455848    -12.655830    0.172552    20.460102    1.719525    6.481917    -29.683994    1.245567    -16.439272    2.450658    -1.234478    3.786820    -6.529721    -0.929551    -6.759071    -16.624111    0.825899    12.717159    17.622644    2.796477    9.668050    0.263765    2.082394    -7.040830    5.437999    2.858519    15.913116    3.270131    14.030179    -0.923795    -2.705574    -10.919854    -2.590310    0.770739    -1.001396    0.009474    -0.168892    0.188149    0.236171    -6.145813    12.175136    3.892993    8.171300    -12.882442    3.522365    -0.259510    1.999600    -7.082972    -0.431193    -1.322532    0.784524    
0.637906    81.736641    -5.506557    -0.771956    -2.200629    0.628161    0.192035    -8.912086    -0.830168    -0.352281    1.892993    -0.839353    0.842453    37.652328    -0.594840    2.463560    -12.678100    0.179553    20.482161    1.704757    6.482572    -29.683195    1.277373    -16.443686    2.460024    -1.251432    3.810519    -6.543653    -0.944325    -6.797604    -16.612911    0.817477    12.715666    17.620045    2.788577    9.664549    0.252989    2.054989    -7.051089    5.459149    2.834335    15.930556    3.251915    14.034370    -0.865970    -2.677969    -10.920193    -2.591303    0.744784    -1.002192    -0.014391    -0.158296    0.178287    0.221367    -6.150493    12.176037    3.895244    8.184256    -12.881498    3.552618    -0.243716    2.060051    -7.191865    -0.469126    -1.378838    0.854071    
0.635673    81.736336    -5.497935    -0.773102    -2.204202    0.614002    0.185105    -8.899184    -0.826666    -0.327903    1.875106    -0.835740    0.811704    37.631264    -0.571961    2.468127    -12.657481    0.197142    20.462646    1.711050    6.481179    -29.653379    1.317241    -16.440857    2.443919    -1.280795    3.798819    -6.536707    -0.972715    -6.807897    -16.628845    0.825878    12.711855    17.608967    2.773506    9.676977    0.224612    1.976138    -7.072277    5.463105    2.755104    15.945685    3.269737    14.041098    -0.902155    -2.711976    -10.906002    -2.574947    0.764641    -1.015431    0.005594    -0.165761    0.169969    0.231819    -6.148905    12.181705    3.903461    8.181909    -12.881340    3.554288    -0.250324    2.058889    -7.180663    -0.461477    -1.367705    0.840043    
0.635852    81.735313    -5.489571    -0.775594    -2.201975    0.604754    0.186688    -8.895760    -0.829336    -0.330407    1.866019    -0.838552    0.824588    37.635864    -0.569922    2.458588    -12.684711    0.200468    20.492664    1.671657    6.476982    -29.667456    1.371731    -16.400972    2.442010    -1.298083    3.794923    -6.540419    -0.989050    -6.818301    -16.620419    0.828014    12.718289    17.596407    2.739202    9.685796    0.232199    1.975465    -7.090477    5.432479    2.751547    15.965281    3.261167    14.051794    -0.896291    -2.683871    -10.923664    -2.605870    0.743615    -1.019074    0.042640    -0.155751    0.181852    0.217804    -6.148732    12.184596    3.901503    8.183535    -12.877773    3.567531    -0.269296    2.053549    -7.181829    -0.474817    -1.350264    0.864157    
0.634013    81.735184    -5.481531    -0.777276    -2.204099    0.593262    0.185128    -8.886889    -0.826044    -0.319077    1.852692    -0.835312    0.806853    37.636246    -0.562906    2.464274    -12.697360    0.205604    20.484011    1.693352    6.481412    -29.649359    1.371510    -16.424196    2.416781    -1.318291    3.809911    -6.496719    -1.010021    -6.841650    -16.632071    0.824252    12.719039    17.599592    2.709553    9.692966    0.215213    2.026084    -7.147894    5.469215    2.808489    16.008539    3.253076    14.059008    -0.846456    -2.671459    -10.915261    -2.606558    0.737767    -1.025522    0.003728    -0.179478    0.176499    0.250991    -6.147506    12.191510    3.908111    8.182139    -12.879367    3.580404    -0.260157    2.050353    -7.195857    -0.468177    -1.369782    0.852258    
0.634170    81.734627    -5.473947    -0.780615    -2.197451    0.583665    0.191214    -8.889632    -0.824577    -0.313311    1.845082    -0.834388    0.765751    37.618912    -0.547218    2.495104    -12.686159    0.220226    20.483753    1.688321    6.481336    -29.650169    1.380675    -16.419491    2.411194    -1.330192    3.818069    -6.477366    -1.020194    -6.891806    -16.631403    0.812587    12.721548    17.583561    2.718450    9.695088    0.225005    2.056201    -7.166519    5.431579    2.834262    16.015688    3.268200    14.069260    -0.870609    -2.702324    -10.932940    -2.578454    0.760561    -1.015433    0.022642    -0.166728    0.175481    0.233164    -6.145844    12.188391    3.927750    8.180626    -12.886312    3.557468    -0.258937    2.050109    -7.185966    -0.477567    -1.374540    0.869396    
0.632836    81.734581    -5.465819    -0.780155    -2.196771    0.572232    0.187636    -8.879299    -0.826735    -0.308256    1.826284    -0.836430    0.784216    37.619137    -0.548528    2.464445    -12.694840    0.215526    20.483049    1.682108    6.483013    -29.630451    1.412944    -16.398766    2.396708    -1.347637    3.815275    -6.440058    -1.037829    -6.918618    -16.624208    0.810940    12.733409    17.564327    2.742969    9.693061    0.217971    2.057743    -7.176210    5.396002    2.831128    16.031874    3.248322    14.064520    -0.835649    -2.665440    -10.910271    -2.595028    0.732675    -1.041544    0.010385    -0.162556    0.186313    0.227314    -6.148829    12.190958    3.920794    8.183354    -12.884058    3.572557    -0.252828    2.042289    -7.177747    -0.467993    -1.356674    0.851799    
